<svg xmlns="http://www.w3.org/2000/svg" xmlns:xlink="http://www.w3.org/1999/xlink" width="781" height="440" viewBox="0 0 781 440"><defs><clipPath id="a"><path d="M84.73,248.49c.89-3.89-5.28-4.07-10.83-7.52-3.83-2.39-10.2-5.89-10.85-8.4-.24-.92-10.59.12-12.17.71-8,3-19.65,11.71-24.58,23.59-7.81,18.79-15.14,76,7.64,116.1s39.29,50,41.65,47c.51-.65,10.74-7.78,16.11-13.82,8.33-9.37,11.87-16.24,15.12-21.88s16.93-28.52,14.15-30.46c-8.46-5.88-24.94-29.59-28-43.37-3.12-14.22-5.29-41.45-5.29-45.2S84.16,250.93,84.73,248.49Z" fill="none"/></clipPath><clipPath id="b"><path d="M50.79,354.84a15.74,15.74,0,0,1-15.73-15L30.3,258.28c-.4-8.69,7.46-16.06,16.15-16.46S64.91,247.34,65.31,256l.34,63,53.72-12.66c8.42-2.18,16,25.3,7.57,27.47L54.73,354.34A15.54,15.54,0,0,1,50.79,354.84Z" fill="none"/></clipPath></defs><title>SSRF Infographic</title><rect x="390.14" y="-3.8" width="411.19" height="453.8" fill="#edd6d6"/><path d="M724.66,376.83s-2.18-3.4-5.64-3.4-8.57.89-9.38,6.05-.28,5.44,1,7.21a15.17,15.17,0,0,0,3.81,3.26s-4,2.65-5.44,5-3.2,7.85-2.48,8.31,13.9.4,13.9.4l25.36-.34s6.46,1.42,5.3-2.66-4.14-8.36-5.23-9.24-2.38-1.84-2.38-1.84a7.7,7.7,0,0,0,5.24-8.09c-.41-6.45-6.26-8.7-8.3-8.22a60.08,60.08,0,0,0-7.48,3.12,14,14,0,0,0-3.74-.2A29.9,29.9,0,0,0,724.66,376.83Z" fill="#fff"/><rect x="570.47" y="148.13" width="68.04" height="15.52" fill="#fff"/><rect x="570.47" y="269.01" width="68.04" height="22.07" fill="#fff"/><rect x="651.72" y="148.13" width="68.04" height="15.52" fill="#fff"/><rect x="651.72" y="269.01" width="68.04" height="22.07" fill="#fff"/><circle cx="515.11" cy="71.02" r="53.71" fill="#fff" opacity="0.5"/><path d="M204.42,137.7h.45A34.49,34.49,0,0,0,207,68.79a48.16,48.16,0,0,0-94.32-10.85A19.88,19.88,0,0,0,82.89,74.58c-.65,0-1.3-.06-2-.06a31.6,31.6,0,0,0,0,63.19" fill="#edd6d6"/><path d="M140.47,137.71H80.93a31.6,31.6,0,0,1,0-63.19c.66,0,1.31,0,2,.06a19.88,19.88,0,0,1,29.79-16.64A48.16,48.16,0,0,1,207,68.79a34.49,34.49,0,0,1-2.13,68.92H182.19" fill="none" stroke="#d60000" stroke-miterlimit="10" stroke-width="2"/><line x1="390.5" y1="4.12" x2="390.5" y2="434.8" fill="none" stroke="#4c5054" stroke-miterlimit="10" stroke-dasharray="5.74 5.74"/><rect x="570.55" y="163.85" width="67.11" height="105.12" fill="#edd6d6"/><rect x="570.55" y="163.85" width="67.11" height="105.12" fill="#edd6d6"/><rect x="652.45" y="163.85" width="67.11" height="105.12" fill="#edd6d6"/><rect x="652.45" y="163.85" width="67.11" height="105.12" fill="#edd6d6"/><path d="M507.91,49.83S495.2,55,489.73,65.21s-7.24,17-6.65,22,1.92,11.53,8.72,14.19,26.31,2.36,33.41,1.77,16,1.92,20.39-5.17,6.95-15.08-1-27.94S528,50.57,523.73,50.43,507.91,49.83,507.91,49.83Z" fill="#fff"/><rect x="570.67" y="148.72" width="67.13" height="142.69" fill="none" stroke="#d60000" stroke-miterlimit="10" stroke-width="1.14"/><line x1="572.25" y1="195.43" x2="636.11" y2="195.43" fill="none" stroke="#d60000" stroke-miterlimit="10" stroke-width="1.14"/><line x1="572.25" y1="209.92" x2="636.11" y2="209.92" fill="none" stroke="#d60000" stroke-miterlimit="10" stroke-width="1.14"/><line x1="572.25" y1="180.48" x2="636.11" y2="180.48" fill="none" stroke="#d60000" stroke-miterlimit="10" stroke-width="1.14"/><line x1="572.25" y1="254.89" x2="636.11" y2="254.89" fill="none" stroke="#d60000" stroke-miterlimit="10" stroke-width="1.14"/><line x1="572.25" y1="269.13" x2="636.11" y2="269.13" fill="none" stroke="#d60000" stroke-miterlimit="10" stroke-width="1.14"/><line x1="572.25" y1="224.99" x2="636.11" y2="224.99" fill="none" stroke="#d60000" stroke-miterlimit="10" stroke-width="1.14"/><line x1="572.25" y1="240.21" x2="636.11" y2="240.21" fill="none" stroke="#d60000" stroke-miterlimit="10" stroke-width="1.14"/><circle cx="577.86" cy="262.56" r="2.04" fill="#d60000"/><circle cx="585.37" cy="262.56" r="2.04" fill="#d60000"/><circle cx="592.9" cy="262.56" r="2.04" fill="#d60000"/><circle cx="600.41" cy="262.56" r="2.04" fill="#d60000"/><circle cx="607.95" cy="262.56" r="2.04" fill="#d60000"/><circle cx="615.46" cy="262.56" r="2.04" fill="#d60000"/><circle cx="622.99" cy="262.56" r="2.04" fill="#d60000"/><circle cx="630.5" cy="262.56" r="2.04" fill="#d60000"/><circle cx="577.86" cy="247.52" r="2.04" fill="#d60000"/><circle cx="585.37" cy="247.52" r="2.04" fill="#d60000"/><circle cx="592.9" cy="247.52" r="2.04" fill="#d60000"/><circle cx="600.41" cy="247.52" r="2.04" fill="#d60000"/><circle cx="607.95" cy="247.52" r="2.04" fill="#d60000"/><circle cx="615.46" cy="247.52" r="2.04" fill="#d60000"/><circle cx="622.99" cy="247.52" r="2.04" fill="#d60000"/><circle cx="630.5" cy="247.52" r="2.04" fill="#d60000"/><circle cx="577.86" cy="232.47" r="2.04" fill="#d60000"/><circle cx="585.37" cy="232.47" r="2.04" fill="#d60000"/><circle cx="592.9" cy="232.47" r="2.04" fill="#d60000"/><circle cx="600.41" cy="232.47" r="2.04" fill="#d60000"/><circle cx="607.95" cy="232.47" r="2.04" fill="#d60000"/><circle cx="615.46" cy="232.47" r="2.04" fill="#d60000"/><circle cx="622.99" cy="232.47" r="2.04" fill="#d60000"/><circle cx="630.5" cy="232.47" r="2.04" fill="#d60000"/><circle cx="577.86" cy="217.43" r="2.04" fill="#d60000"/><circle cx="585.37" cy="217.43" r="2.04" fill="#d60000"/><circle cx="592.9" cy="217.43" r="2.04" fill="#d60000"/><circle cx="600.41" cy="217.43" r="2.04" fill="#d60000"/><circle cx="607.95" cy="217.43" r="2.04" fill="#d60000"/><circle cx="615.46" cy="217.43" r="2.04" fill="#d60000"/><circle cx="622.99" cy="217.43" r="2.04" fill="#d60000"/><circle cx="630.5" cy="217.43" r="2.04" fill="#d60000"/><circle cx="577.86" cy="202.39" r="2.04" fill="#d60000"/><circle cx="585.37" cy="202.39" r="2.04" fill="#d60000"/><circle cx="592.9" cy="202.39" r="2.04" fill="#d60000"/><circle cx="600.41" cy="202.39" r="2.04" fill="#d60000"/><circle cx="607.95" cy="202.39" r="2.04" fill="#d60000"/><circle cx="615.46" cy="202.39" r="2.04" fill="#d60000"/><circle cx="622.99" cy="202.39" r="2.04" fill="#d60000"/><circle cx="630.5" cy="202.39" r="2.04" fill="#d60000"/><circle cx="577.86" cy="187.34" r="2.04" fill="#d60000"/><circle cx="585.37" cy="187.34" r="2.04" fill="#d60000"/><circle cx="592.9" cy="187.34" r="2.04" fill="#d60000"/><circle cx="600.41" cy="187.34" r="2.04" fill="#d60000"/><circle cx="607.95" cy="187.34" r="2.04" fill="#d60000"/><circle cx="615.46" cy="187.34" r="2.04" fill="#d60000"/><circle cx="622.99" cy="187.34" r="2.04" fill="#d60000"/><circle cx="630.5" cy="187.34" r="2.04" fill="#d60000"/><circle cx="577.86" cy="172.3" r="2.04" fill="#d60000"/><circle cx="585.37" cy="172.3" r="2.04" fill="#d60000"/><circle cx="592.9" cy="172.3" r="2.04" fill="#d60000"/><circle cx="600.41" cy="172.3" r="2.04" fill="#d60000"/><circle cx="607.95" cy="172.3" r="2.04" fill="#d60000"/><circle cx="615.46" cy="172.3" r="2.04" fill="#d60000"/><circle cx="622.99" cy="172.3" r="2.04" fill="#d60000"/><circle cx="630.5" cy="172.3" r="2.04" fill="#d60000"/><line x1="572.25" y1="164.01" x2="636.11" y2="164.01" fill="none" stroke="#d60000" stroke-miterlimit="10" stroke-width="1.14"/><rect x="652.16" y="148.72" width="67.13" height="142.69" fill="none" stroke="#d60000" stroke-miterlimit="10" stroke-width="1.14"/><line x1="653.72" y1="195.43" x2="717.6" y2="195.43" fill="none" stroke="#d60000" stroke-miterlimit="10" stroke-width="1.14"/><line x1="653.72" y1="209.92" x2="717.6" y2="209.92" fill="none" stroke="#d60000" stroke-miterlimit="10" stroke-width="1.14"/><line x1="653.72" y1="180.48" x2="717.6" y2="180.48" fill="none" stroke="#d60000" stroke-miterlimit="10" stroke-width="1.14"/><line x1="653.72" y1="254.89" x2="717.6" y2="254.89" fill="none" stroke="#d60000" stroke-miterlimit="10" stroke-width="1.14"/><line x1="653.72" y1="269.13" x2="717.6" y2="269.13" fill="none" stroke="#d60000" stroke-miterlimit="10" stroke-width="1.14"/><line x1="653.72" y1="224.99" x2="717.6" y2="224.99" fill="none" stroke="#d60000" stroke-miterlimit="10" stroke-width="1.14"/><line x1="653.72" y1="240.21" x2="717.6" y2="240.21" fill="none" stroke="#d60000" stroke-miterlimit="10" stroke-width="1.14"/><circle cx="659.33" cy="262.56" r="2.04" fill="#d60000"/><circle cx="666.86" cy="262.56" r="2.04" fill="#d60000"/><circle cx="674.37" cy="262.56" r="2.04" fill="#d60000"/><circle cx="681.9" cy="262.56" r="2.04" fill="#d60000"/><circle cx="689.41" cy="262.56" r="2.04" fill="#d60000"/><circle cx="696.94" cy="262.56" r="2.04" fill="#d60000"/><circle cx="704.45" cy="262.56" r="2.04" fill="#d60000"/><circle cx="711.99" cy="262.56" r="2.04" fill="#d60000"/><circle cx="659.33" cy="247.52" r="2.04" fill="#d60000"/><circle cx="666.86" cy="247.52" r="2.04" fill="#d60000"/><circle cx="674.37" cy="247.52" r="2.04" fill="#d60000"/><circle cx="681.9" cy="247.52" r="2.04" fill="#d60000"/><circle cx="689.41" cy="247.52" r="2.04" fill="#d60000"/><circle cx="696.94" cy="247.52" r="2.04" fill="#d60000"/><circle cx="704.45" cy="247.52" r="2.04" fill="#d60000"/><circle cx="711.99" cy="247.52" r="2.04" fill="#d60000"/><circle cx="659.33" cy="232.47" r="2.04" fill="#d60000"/><circle cx="666.86" cy="232.47" r="2.04" fill="#d60000"/><circle cx="674.37" cy="232.47" r="2.04" fill="#d60000"/><circle cx="681.9" cy="232.47" r="2.04" fill="#d60000"/><circle cx="689.41" cy="232.47" r="2.04" fill="#d60000"/><circle cx="696.94" cy="232.47" r="2.04" fill="#d60000"/><circle cx="704.45" cy="232.47" r="2.04" fill="#d60000"/><circle cx="711.99" cy="232.47" r="2.04" fill="#d60000"/><circle cx="659.33" cy="217.43" r="2.04" fill="#d60000"/><circle cx="666.86" cy="217.43" r="2.04" fill="#d60000"/><circle cx="674.37" cy="217.43" r="2.04" fill="#d60000"/><circle cx="681.9" cy="217.43" r="2.04" fill="#d60000"/><circle cx="689.41" cy="217.43" r="2.04" fill="#d60000"/><circle cx="696.94" cy="217.43" r="2.04" fill="#d60000"/><circle cx="704.45" cy="217.43" r="2.04" fill="#d60000"/><circle cx="711.99" cy="217.43" r="2.04" fill="#d60000"/><circle cx="659.33" cy="202.39" r="2.04" fill="#d60000"/><circle cx="666.86" cy="202.39" r="2.04" fill="#d60000"/><circle cx="674.37" cy="202.39" r="2.04" fill="#d60000"/><circle cx="681.9" cy="202.39" r="2.04" fill="#d60000"/><circle cx="689.41" cy="202.39" r="2.04" fill="#d60000"/><circle cx="696.94" cy="202.39" r="2.04" fill="#d60000"/><circle cx="704.45" cy="202.39" r="2.04" fill="#d60000"/><circle cx="711.99" cy="202.39" r="2.04" fill="#d60000"/><circle cx="659.33" cy="187.34" r="2.04" fill="#d60000"/><circle cx="666.86" cy="187.34" r="2.04" fill="#d60000"/><circle cx="674.37" cy="187.34" r="2.04" fill="#d60000"/><circle cx="681.9" cy="187.34" r="2.04" fill="#d60000"/><circle cx="689.41" cy="187.34" r="2.04" fill="#d60000"/><circle cx="696.94" cy="187.34" r="2.04" fill="#d60000"/><circle cx="704.45" cy="187.34" r="2.04" fill="#d60000"/><circle cx="711.99" cy="187.34" r="2.04" fill="#d60000"/><circle cx="659.33" cy="172.3" r="2.04" fill="#d60000"/><circle cx="666.86" cy="172.3" r="2.04" fill="#d60000"/><circle cx="674.37" cy="172.3" r="2.04" fill="#d60000"/><circle cx="681.9" cy="172.3" r="2.04" fill="#d60000"/><circle cx="689.41" cy="172.3" r="2.04" fill="#d60000"/><circle cx="696.94" cy="172.3" r="2.04" fill="#d60000"/><circle cx="704.45" cy="172.3" r="2.04" fill="#d60000"/><circle cx="711.99" cy="172.3" r="2.04" fill="#d60000"/><line x1="653.72" y1="164.01" x2="717.6" y2="164.01" fill="none" stroke="#d60000" stroke-miterlimit="10" stroke-width="1.14"/><rect x="274.27" y="140.63" width="232.24" height="159.13" fill="#fff" stroke="#ffaf10" stroke-miterlimit="10" stroke-width="2"/><rect x="274.3" y="140.23" width="232.38" height="31.4" fill="#ffaf10"/><text transform="translate(289.49 161.36)" font-size="16" fill="#fff" font-family="Arial-BoldMT, Arial" font-weight="700">WEBSITE</text><circle cx="466.98" cy="156.46" r="3.99" fill="#fff"/><circle cx="478.66" cy="156.46" r="3.99" fill="#fff"/><circle cx="490.34" cy="156.46" r="3.99" fill="#fff"/><rect x="289.55" y="184.33" width="58.79" height="100.4" fill="#fcf1e0" stroke="#ffaf10" stroke-miterlimit="10" stroke-width="2.05"/><rect x="361.55" y="184.33" width="129.65" height="40.95" fill="#fcf1e0" stroke="#ffaf10" stroke-miterlimit="10" stroke-width="2.05"/><rect x="361.55" y="243.14" width="129.65" height="40.95" fill="#fcf1e0" stroke="#ffaf10" stroke-miterlimit="10" stroke-width="2.05"/><circle cx="390.61" cy="110.15" r="16.59" fill="#fff" stroke="#4c5054" stroke-miterlimit="10"/><rect x="584.11" y="207.1" width="119.17" height="24.27" rx="12.13" fill="#fff" stroke="#d60000" stroke-miterlimit="10"/><text transform="translate(592.63 223.51)" font-size="14" fill="#d60000" font-family="Arial-BoldMT, Arial" font-weight="700" style="isolation:isolate">Internal system</text><path d="M394.74,106.7a3.19,3.19,0,0,1-1.72,3.24,26.86,26.86,0,0,0,.28-3.29,9,9,0,0,0-4.63-7.93,4.63,4.63,0,0,1,.46,1.88c0,3.53-6.21,6.56-6.21,12.07,0,3.63,3.55,6.84,5.64,8.42-1.1-1.06-2.41-2.7-2.41-4.52a6.35,6.35,0,0,1,1.34-3.64,2,2,0,0,0,.94,2,18.49,18.49,0,0,1-.15-2,5.51,5.51,0,0,1,2.54-4.83,3,3,0,0,0-.26,1.15c0,2.15,3.4,4,3.4,7.35,0,1.82-1.31,3.46-2.41,4.52,2.1-1.58,5.65-4.79,5.65-8.42A9.73,9.73,0,0,0,394.74,106.7Z" fill="#4c5054"/><circle cx="390.61" cy="329.11" r="16.59" fill="#fff" stroke="#d60000" stroke-miterlimit="10" stroke-width="0.85" stroke-dasharray="4.89 4.89"/><circle cx="390.61" cy="329.11" r="16.59" fill="#fff" stroke="#4c5054" stroke-miterlimit="10"/><path d="M394.74,325.66A3.18,3.18,0,0,1,393,328.9a26.63,26.63,0,0,0,.28-3.29,9,9,0,0,0-4.63-7.93,4.64,4.64,0,0,1,.46,1.89c0,3.52-6.21,6.55-6.21,12.06,0,3.63,3.55,6.85,5.64,8.43-1.1-1.07-2.41-2.71-2.41-4.52a6.33,6.33,0,0,1,1.34-3.64,2,2,0,0,0,.94,2,18.49,18.49,0,0,1-.15-2,5.53,5.53,0,0,1,2.54-4.83,3,3,0,0,0-.26,1.15c0,2.15,3.4,4,3.4,7.36,0,1.81-1.31,3.45-2.41,4.52,2.1-1.58,5.65-4.8,5.65-8.43A9.73,9.73,0,0,0,394.74,325.66Z" fill="#4c5054"/><text transform="translate(398.82 362.45) rotate(90)" font-size="12" fill="#4c5054" font-family="Arial-BoldMT, Arial" font-weight="700" style="isolation:isolate">FIRE<tspan x="27.33" y="0" letter-spacing="-0.06em">W</tspan><tspan x="38" y="0">AL</tspan><tspan x="53.99" y="0" letter-spacing="-0.02em">L</tspan></text><text transform="translate(375.04 17.39) rotate(90)" font-size="12" fill="#4c5054" font-family="Arial-BoldMT, Arial" font-weight="700" style="isolation:isolate">FIRE<tspan x="27.33" y="0" letter-spacing="-0.06em">W</tspan><tspan x="38" y="0">AL</tspan><tspan x="53.99" y="0" letter-spacing="-0.02em">L</tspan></text><polygon points="468.01 317.3 462.01 308.3 456.01 317.3 468.01 317.3" fill="#d60000"/><polygon points="558.79 224.28 567.79 218.28 558.79 212.28 558.79 224.28" fill="#d60000"/><polygon points="260.35 91.72 251.35 97.72 260.35 103.72 260.35 91.72" fill="#d60000"/><polygon points="253 63.06 262 57.06 253 51.06 253 63.06" fill="#d60000"/><polygon points="351.98 79.39 345.98 70.39 339.98 79.39 351.98 79.39" fill="#d60000"/><polygon points="532.61 194.65 526.61 185.65 520.61 194.65 532.61 194.65" fill="#d60000"/><circle cx="621.84" cy="358.78" r="53.67" fill="#fff" opacity="0.5"/><circle cx="728" cy="387.81" r="38.24" fill="#fff" opacity="0.5"/><circle cx="537.37" cy="401.72" r="25.46" fill="#fff" opacity="0.5"/><circle cx="464.81" cy="391.51" r="29.41" fill="#fff" opacity="0.5"/><circle cx="706.49" cy="53.82" r="42.85" fill="#fff" opacity="0.5"/><circle cx="629.44" cy="85.62" r="25.86" fill="#fff" opacity="0.5"/><polyline points="507.89 218.24 540.04 218.24 540.04 165.97 526.6 165.97 526.6 234.32 551.39 234.32 551.39 218.24 563.22 218.24" fill="none" stroke="#d60000" stroke-miterlimit="10"/><polyline points="346.21 132.28 346.21 31.83 237.88 31.83 237.88 56.97 312.81 56.97 312.81 82.88 284.78 82.88 284.78 72.05 302.5 72.05 302.5 97.83 258.87 97.83" fill="none" stroke="#d60000" stroke-miterlimit="10"/><circle cx="176.42" cy="127.21" r="37.2" fill="#fff"/><rect x="29.86" y="85.57" width="92.94" height="43.44" rx="21.72" fill="#fff" stroke="#d60000" stroke-miterlimit="10" stroke-width="2"/><text transform="translate(46.38 103.96)" font-size="14" fill="#d60000" font-family="Arial-BoldMT, Arial" font-weight="700" style="isolation:isolate">3rd party<tspan x="1.93" y="16.8">systems</tspan></text><line x1="176.1" y1="90.07" x2="176.1" y2="164.53" fill="none" stroke="#d60000" stroke-miterlimit="10" stroke-width="2"/><path d="M172.16,164.26c-10.17-8-16.82-21.37-16.82-36.5,0-15.86,7.32-29.78,18.34-37.63" fill="none" stroke="#d60000" stroke-miterlimit="10" stroke-width="2"/><path d="M180,164.26c10.17-8,16.82-21.37,16.82-36.5,0-15.86-7.32-29.78-18.34-37.63" fill="none" stroke="#d60000" stroke-miterlimit="10" stroke-width="2"/><line x1="213.05" y1="127.02" x2="138.59" y2="127.02" fill="none" stroke="#d60000" stroke-miterlimit="10" stroke-width="2"/><path d="M145.56,147.89c7.95-3.76,18.62-6,30.35-6,11.89,0,22.7,2.36,30.68,6.2" fill="none" stroke="#d60000" stroke-miterlimit="10" stroke-width="2"/><path d="M145.56,106.63c7.95,3.76,18.62,6.05,30.35,6.05,11.89,0,22.7-2.36,30.68-6.2" fill="none" stroke="#d60000" stroke-miterlimit="10" stroke-width="2"/><circle cx="176.42" cy="127.21" r="37.2" fill="none" stroke="#d60000" stroke-miterlimit="10" stroke-width="2"/><polyline points="594.58 146.81 594.58 115.1 571.46 115.1 571.46 95.29 584.01 95.29 584.01 128.31 543.72 128.31 543.72 121.71" fill="none" stroke="#fff" stroke-miterlimit="10" opacity="0.5"/><polyline points="663.28 146.81 663.28 134.26 633.06 134.26 633.06 113.78" fill="none" stroke="#fff" stroke-miterlimit="10" opacity="0.5"/><polyline points="688.38 146.15 688.38 128.31 722.73 128.31 722.73 114.48 704.63 114.48 704.63 99.91" fill="none" stroke="#fff" stroke-miterlimit="10" opacity="0.5"/><polyline points="568.53 280.24 554.29 280.24 554.29 322.3 545.37 322.3 545.37 341.01 537.47 341.01 537.47 373.05" fill="none" stroke="#fff" stroke-miterlimit="10" opacity="0.5"/><polyline points="684.41 294.75 684.41 322.51 673.18 322.51 673.18 310.63 650.07 310.63" fill="none" stroke="#fff" stroke-miterlimit="10" opacity="0.5"/><polyline points="729.99 346.3 729.99 318.29 739.9 318.29 739.9 329.51 703.57 329.51 703.57 322.25 703.57 303.36 750.47 303.36 750.47 228.06 721.74 228.06" fill="none" stroke="#fff" stroke-miterlimit="10" opacity="0.5"/><path d="M638.09,97.28A14.59,14.59,0,1,1,627.8,72.35V86.79h0v.14l10.28,10.35Z" fill="#fff"/><path d="M638.09,97.28A14.59,14.59,0,1,1,627.8,72.35V86.79h0v.14l10.28,10.35Z" fill="none" stroke="#d60000" stroke-linecap="round" stroke-linejoin="round" stroke-width="2"/><path d="M501.23,35.77s5.65,8.45,6.24,9.93,1.77,4,1.77,4,10.79.29,11.24.14,2.95-2.21,5-6.35,6.36-11.53-.74-10-16,2.81-19.36,2.36S501.23,35.77,501.23,35.77Z" fill="#fff"/><path d="M647.1,85.25v.14a14.57,14.57,0,0,1-4.3,10.35L632.52,85.39v-.14Z" fill="#d60000" stroke="#d60000" stroke-linecap="round" stroke-linejoin="round" stroke-width="2"/><path d="M632,67.23a14.58,14.58,0,0,1,14.58,14.44H632V67.23Z" fill="#fff"/><path d="M632,67.23a14.58,14.58,0,0,1,14.58,14.44H632V67.23Z" fill="none" stroke="#d60000" stroke-linecap="round" stroke-linejoin="round" stroke-width="2"/><polygon points="647.62 392.76 600.28 392.76 600.28 325.26 630.83 325.26 647.62 342.06 647.62 392.76" fill="#fff"/><line x1="517.08" y1="49.41" x2="521.15" y2="39.59" fill="none" stroke="#d60000" stroke-linecap="round" stroke-linejoin="round" stroke-width="2"/><line x1="513.21" y1="49.29" x2="512.42" y2="43.94" fill="none" stroke="#d60000" stroke-linecap="round" stroke-linejoin="round" stroke-width="2"/><line x1="516.43" y1="63.5" x2="516.43" y2="67.95" fill="none" stroke="#d60000" stroke-linecap="round" stroke-linejoin="round" stroke-width="2"/><line x1="516.43" y1="87.37" x2="516.43" y2="91.82" fill="none" stroke="#d60000" stroke-linecap="round" stroke-linejoin="round" stroke-width="2"/><path d="M522.88,70.27a29.23,29.23,0,0,0-5.76-1.53c-10-1.13-11.28,9-.64,8.92,10.35,0,9.38,10-.65,8.92a29.77,29.77,0,0,1-5.74-1.53" fill="none" stroke="#d60000" stroke-linecap="round" stroke-linejoin="round" stroke-width="2"/><path d="M522,48.9l.17-.1c1.19-2.26,5-6.43,6.05-9.79,3.56-11-15.82-1-27-3.24-1.09-.22,5.08,6.93,7.72,13.13" fill="none" stroke="#d60000" stroke-linecap="round" stroke-linejoin="round" stroke-width="2"/><path d="M508.73,50h14c4.66,0,11.3,5.41,16.77,11.85,7.9,9.31,17.13,32.09,2.21,39.59-5.26,2.64-13.46,2-25.27,2-12.57,0-20.78.53-25.85-2.31-13.63-7.64-5.7-30.61,2.08-39.93C497.78,55.08,504.06,50,508.73,50Z" fill="none" stroke="#d60000" stroke-linecap="round" stroke-linejoin="round" stroke-width="2"/><line x1="453.12" y1="383.84" x2="457.37" y2="379.65" fill="none" stroke="#d60000" stroke-linecap="round" stroke-linejoin="round" stroke-width="2"/><line x1="462.14" y1="379.45" x2="466.43" y2="383.37" fill="none" stroke="#d60000" stroke-linecap="round" stroke-linejoin="round" stroke-width="2"/><line x1="471.52" y1="383.88" x2="474.75" y2="382.31" fill="none" stroke="#d60000" stroke-linecap="round" stroke-linejoin="round" stroke-width="1.67"/><path d="M647.6,341.57v48.74a2.58,2.58,0,0,1-2.55,2.55H602.89a2.57,2.57,0,0,1-2.55-2.55V327.5a2.56,2.56,0,0,1,2.55-2.55H631" fill="none" stroke="#d60000" stroke-linecap="round" stroke-linejoin="round" stroke-width="2"/><path d="M647.6,341.57H633.53A2.55,2.55,0,0,1,631,339V325l16.62,16.62Z" fill="none" stroke="#d60000" stroke-linecap="round" stroke-linejoin="round" stroke-width="2"/><line x1="610.53" y1="338.61" x2="623.97" y2="338.61" fill="none" stroke="#d60000" stroke-linecap="round" stroke-linejoin="round" stroke-width="2"/><line x1="610.53" y1="351.33" x2="637.4" y2="351.33" fill="none" stroke="#d60000" stroke-linecap="round" stroke-linejoin="round" stroke-width="2"/><line x1="610.53" y1="358.75" x2="637.4" y2="358.75" fill="none" stroke="#d60000" stroke-linecap="round" stroke-linejoin="round" stroke-width="2"/><line x1="610.53" y1="366.17" x2="637.4" y2="366.17" fill="none" stroke="#d60000" stroke-linecap="round" stroke-linejoin="round" stroke-width="2"/><line x1="610.53" y1="373.59" x2="623.97" y2="373.59" fill="none" stroke="#d60000" stroke-linecap="round" stroke-linejoin="round" stroke-width="2"/><rect x="524.46" y="392" width="26" height="17.89" fill="#fff"/><path d="M717.37,406c0-6.4,3.72-11.76,8.74-13.24h0a8.62,8.62,0,1,1,5.22,0h0c5,1.51,8.67,6.85,8.67,13.22Z" fill="#fff"/><path d="M717.37,406c0-6.4,3.72-11.76,8.74-13.24h0a8.62,8.62,0,1,1,5.22,0h0c5,1.51,8.67,6.85,8.67,13.22Z" fill="none" stroke="#d60000" stroke-linecap="round" stroke-linejoin="round" stroke-width="2"/><path d="M717.59,403.22H706.54c0-6.39,3.72-11.76,8.74-13.24h0a8.64,8.64,0,1,1,9.29-13.67" fill="none" stroke="#d60000" stroke-linecap="round" stroke-linejoin="round" stroke-width="2"/><path d="M733.48,376.32A8.64,8.64,0,1,1,742.77,390h0c5,1.48,8.74,6.85,8.74,13.24H739.88" fill="none" stroke="#d60000" stroke-linecap="round" stroke-linejoin="round" stroke-width="2"/><rect x="524.48" y="391.87" width="26.06" height="18.09" rx="1.33" fill="none" stroke="#d60000" stroke-miterlimit="10" stroke-width="2"/><polyline points="524.48 391.87 537.64 402.15 550.54 391.87" fill="none" stroke="#d60000" stroke-miterlimit="10" stroke-width="2"/><line x1="535.77" y1="400.68" x2="524.19" y2="410.16" fill="none" stroke="#d60000" stroke-miterlimit="10" stroke-width="2"/><line x1="550.84" y1="410.16" x2="539.26" y2="400.68" fill="none" stroke="#d60000" stroke-miterlimit="10" stroke-width="2"/><polyline points="580.49 293.45 580.49 309.52 561.01 309.52 561.01 362.15 505.55 362.15 505.55 378.98 495.18 378.98" fill="none" stroke="#fff" stroke-miterlimit="10" opacity="0.5"/><path d="M729.77,47.23h-3.51a20.85,20.85,0,0,0-1.21-2.92l2.48-2.48a3,3,0,0,0,0-4.28l-4.89-4.89a3.11,3.11,0,0,0-4.28,0l-2.48,2.48A21.89,21.89,0,0,0,713,33.93V30.42a3,3,0,0,0-3-3H703a3,3,0,0,0-3,3v3.51a20.85,20.85,0,0,0-2.92,1.21l-2.48-2.48a3.11,3.11,0,0,0-4.28,0l-4.89,4.89a3,3,0,0,0,0,4.28l2.48,2.48a19.71,19.71,0,0,0-1.21,2.92h-3.51a3,3,0,0,0-3,3v6.92a3,3,0,0,0,3,3h3.51a19.71,19.71,0,0,0,1.21,2.92l-2.48,2.48a3,3,0,0,0,0,4.28l4.89,4.89a3.11,3.11,0,0,0,4.28,0l2.48-2.48A19.71,19.71,0,0,0,700,73.49V77a3,3,0,0,0,3,3h6.92a3,3,0,0,0,3-3V73.49a20.65,20.65,0,0,0,2.92-1.21l2.48,2.48a3.11,3.11,0,0,0,4.28,0l4.89-4.89a3,3,0,0,0,0-4.28l-2.48-2.48a20.85,20.85,0,0,0,1.21-2.92h3.51a3,3,0,0,0,3-3V50.25A3,3,0,0,0,729.77,47.23ZM714.27,61.5a11,11,0,1,1,0-15.58A10.91,10.91,0,0,1,714.27,61.5Z" fill="#fff"/><path d="M683.22,47.44a3,3,0,0,0-3,3v6.92a3,3,0,0,0,3,3h3.51a21.89,21.89,0,0,0,1.21,2.92l-2.48,2.48a3,3,0,0,0,0,4.27L690.35,75a3.09,3.09,0,0,0,4.28,0l2.48-2.48A19.53,19.53,0,0,0,700,73.7v3.51a3,3,0,0,0,3,3H710a3,3,0,0,0,3-3V73.7a19.1,19.1,0,0,0,2.92-1.21L718.39,75a3.09,3.09,0,0,0,4.28,0l4.89-4.89a3,3,0,0,0,0-4.27l-2.48-2.48a20.65,20.65,0,0,0,1.21-2.92h3.51a3,3,0,0,0,3-3V50.46a3,3,0,0,0-3-3h-3.51a20.65,20.65,0,0,0-1.21-2.92L727.56,42a3,3,0,0,0,0-4.27l-4.89-4.9a3.11,3.11,0,0,0-4.28,0l-2.48,2.48a19.67,19.67,0,0,0-2.92-1.2V30.64a3,3,0,0,0-3-3h-6.92a3,3,0,0,0-3,3v3.51a20.59,20.59,0,0,0-2.92,1.2l-2.48-2.48a3.11,3.11,0,0,0-4.28,0l-4.89,4.9a3,3,0,0,0,0,4.27l2.48,2.48a21.89,21.89,0,0,0-1.21,2.92Z" fill="none" stroke="#d60000" stroke-miterlimit="10" stroke-width="2"/><circle cx="706.51" cy="53.92" r="10.91" fill="none" stroke="#d60000" stroke-miterlimit="10" stroke-width="2"/><circle cx="449.77" cy="386.37" r="2.58" fill="#fff"/><circle cx="458.88" cy="377.17" r="2.58" fill="#fff"/><circle cx="467.9" cy="385.37" r="2.58" fill="#fff"/><circle cx="477" cy="381.33" r="2.58" fill="#fff"/><rect x="447.93" y="395.15" width="4.79" height="9.72" fill="#fff"/><rect x="457.04" y="385.58" width="4.79" height="19.45" fill="#fff"/><rect x="466.05" y="393.94" width="4.79" height="10.71" fill="#fff"/><rect x="475.16" y="389.81" width="4.79" height="14.41" fill="#fff"/><polygon points="457.28 385.86 462.05 385.86 462.05 404.91 457.28 404.91 457.28 385.86 457.28 385.86" fill="none" stroke="#d60000" stroke-linecap="round" stroke-linejoin="round" stroke-width="2"/><polygon points="448.29 394.85 453.05 394.85 453.05 404.91 448.29 404.91 448.29 394.85 448.29 394.85" fill="none" stroke="#d60000" stroke-linecap="round" stroke-linejoin="round" stroke-width="2"/><polygon points="466.28 393.88 471.04 393.88 471.04 404.91 466.28 404.91 466.28 393.88 466.28 393.88" fill="none" stroke="#d60000" stroke-linecap="round" stroke-linejoin="round" stroke-width="2"/><polygon points="475.28 389.71 480.04 389.71 480.04 404.91 475.28 404.91 475.28 389.71 475.28 389.71" fill="none" stroke="#d60000" stroke-linecap="round" stroke-linejoin="round" stroke-width="2"/><path d="M450.67,383.59a2.75,2.75,0,1,0,2.74,2.75,2.75,2.75,0,0,0-2.74-2.75Zm9-9.14a2.75,2.75,0,1,0,2.75,2.75,2.75,2.75,0,0,0-2.75-2.75Zm9,8.18a2.75,2.75,0,1,0,2.75,2.74,2.74,2.74,0,0,0-2.75-2.74Zm9-4.16a2.75,2.75,0,1,0,2.75,2.75,2.75,2.75,0,0,0-2.75-2.75Z" fill="none" stroke="#d60000" stroke-linecap="round" stroke-linejoin="round" stroke-width="2"/><circle cx="437.57" cy="100.96" r="13.73" fill="#fff" opacity="0.25"/><circle cx="763.26" cy="162.1" r="23.56" fill="#fff" opacity="0.25"/><circle cx="425.74" cy="424.85" r="10.47" fill="#fff" opacity="0.25"/><circle cx="432.3" cy="33.14" r="9.66" fill="#fff" opacity="0.25"/><circle cx="536.43" cy="259.05" r="8.49" fill="#fff" opacity="0.25"/><circle cx="666.42" cy="421.75" r="10.39" fill="#fff" opacity="0.25"/><circle cx="506.79" cy="453.01" r="21.91" fill="#fff" opacity="0.25"/><circle cx="606.06" cy="31.04" r="18.67" fill="#fff" opacity="0.25"/><ellipse cx="246.31" cy="270.74" rx="0.97" ry="1.45" transform="translate(-109.44 356.81) rotate(-61.31)" fill="#fff"/><ellipse cx="250.04" cy="272.78" rx="0.97" ry="1.45" transform="translate(-109.29 361.14) rotate(-61.31)" fill="#fff"/><ellipse cx="253.77" cy="274.82" rx="0.97" ry="1.45" transform="translate(-109.14 365.47) rotate(-61.31)" fill="#fff"/><polyline points="260.96 226.75 221.98 226.75 221.98 173.88 248.96 173.88 248.96 199.65 196.11 199.65 196.11 245.89 150.37 245.89 150.37 222.77 177.45 222.77 177.45 301.63" fill="none" stroke="#cbd0d1" stroke-miterlimit="10"/><polygon points="258.13 232.54 267.13 226.54 258.13 220.54 258.13 232.54" fill="#cbd0d1"/><polygon points="183.87 277.6 177.87 268.6 171.87 277.6 183.87 277.6" fill="#cbd0d1"/><polygon points="205.56 205.78 214.56 199.78 205.56 193.78 205.56 205.78" fill="#cbd0d1"/><path d="M507.16,276.41h26.23v23.43h9.23v9.68H506.73v15.64h15.85V347.4h-76V324.69h33.95v12.23H461.89V310.77" fill="none" stroke="#d60000" stroke-miterlimit="10"/><polygon points="517.7 282.14 526.7 276.14 517.7 270.14 517.7 282.14" fill="#d60000"/><polygon points="516.99 331.76 522.99 340.76 528.99 331.76 516.99 331.76" fill="#d60000"/><path d="M304.32,384.7s12.36-1.11,14.78-1.11,12.2-1.23,15.83-2.53,12.69-5.86,16.92-5.86,5.43,5.86,3.62,11.06-7.25,16.92-16.92,22.78-26.58,19.52-29,21.48-8.46,5.2-13.89,4.55-6.05-3.25-6.05-4.55a7.58,7.58,0,0,0-1.81-3.91c-.6-.65-3.62-5.21-4.23-8.46a6.73,6.73,0,0,0-2.41-4.55,2.92,2.92,0,0,1-.61-3.91c1.21-1.95,2-.61,2.8-1.28s12.91-15.64,12.91-15.64Z" fill="#4c5054" stroke="#4c5054" stroke-miterlimit="10" stroke-width="2.51"/><path d="M277.56,373.88s17.49,11.73,19.3,11.73,4.23,0,4.84,1.95,1.81,13.67-2.42,17.58-8.46,5.2-11.48,4.55-24.72-15-24.72-15Z" fill="#fff" stroke="#4c5054" stroke-miterlimit="10" stroke-width="2.02"/><path d="M282.07,373.19c.32,0-19.21,28.11-19.64,28.09s-68.59-39.71-69.19-38.41S135.89,424.12,120,432.5c-9.94,5.23-19.62,5.2-33-.66-14-6.11-14-17.13-14-17.13l30.82-58.57a48.05,48.05,0,0,0,6.08-2.51c4.07-1.91,2.7-3.27,3.3-1.32s4.19,13.18,6.61,11.23,72.51-46.31,72.51-46.31S281,373.19,282.07,373.19Z" fill="#4c5054" stroke="#4c5054" stroke-miterlimit="10" stroke-width="2.51"/><path d="M140.23,200.92s-1.3,13.67-2.61,15-3.25.65-3.25,5.21-.65,15-2,15.61-5.86-2-6.51-2-7.16,5.21-8.46,7.81-5.86,9.76-9.76,10.41-17.85-12.65-20.46-10.7a11.26,11.26,0,0,0-3.9,7.81c0,1.95-20.47-.81-20.47-12.53,0-3.32,12.7-24.12,12.7-24.12s.24-22.28.89-26.83S84.91,169,97.93,164.48,141.53,186,140.23,200.92Z" fill="#fff" stroke="#4c5054" stroke-miterlimit="10" stroke-width="2.06"/><path d="M99.89,159.24c-8.86,2.22-22.16,16.12-24.17,22.84s-7,24.12-6.72,27.53c.67,7.39,13.43,17.46,15.45,14.11s8.32-14.74,8.73-18.81c.67-6.71,4-13.43,8.73-13.43,1.34,0,5.9,2.11,6.57,5.47.8,4-3.89,16-6.57,18s-9.63,6-10.75,10.07c-2,7.39,2,22.83,4,24.85s8.29,6.32,12.09,5.37c5.37-1.34,8.73-9.4,12-13.23,1.37-1.6,4.12-2.89,5.51-4.81s-14.49-9.45-14.15-13.52c1.34-16.12,6-35.44,16.12-34.25,11.41,1.34,12.76,12.08,20.14,13.43,4,.73,30.11-12.67,24.18-17.46-.81-.65-16.79.67-32.24-9.41C134.79,173.39,118.7,154.54,99.89,159.24Z" fill="#4c5054" stroke="#4c5054" stroke-miterlimit="10" stroke-width="2.69"/><path d="M130.46,223.53c1,.86,4.06-1.06,6.92-4.29s4.4-6.52,3.44-7.38-4.06,1.07-6.92,4.29S129.5,222.68,130.46,223.53Z" fill="#4c5054" stroke="#4c5054" stroke-miterlimit="10" stroke-width="2.51"/><path d="M84.43,248.78c-1-3.42-5-4.36-10.53-7.81-3.83-2.39-8.71-6.4-11-7.71-1.65-1-9.58-.32-11.22.09A36.28,36.28,0,0,0,28.08,254c-7.81,18.79-16.92,78.93,5.86,119s39.29,50,41.65,47c.51-.65,10.74-7.78,16.11-13.82,8.33-9.37,11.87-16.24,15.12-21.88s16.71-28.3,13.93-30.24C112.29,348.12,96,324.75,93,311c-3.12-14.22-4.63-41.73-4.63-45.49S85.12,251.19,84.43,248.78Z" fill="#fff" stroke="#4c5054" stroke-miterlimit="10" stroke-width="2.06"/><polygon points="197.28 321 187.52 311.24 121.14 328.16 109.43 341.82 197.28 321" fill="#fff" stroke="#4c5054" stroke-linecap="round" stroke-linejoin="round" stroke-width="2"/><path d="M118.55,310.35s3.4,2.82,6.39,1.27c2.8-1.45,15.47-6.22,21.94-5.66,0,0,5.48-.17,9.15,2.3s9.42,5.8,9.54,6.42.6,3.07,0,3.19a5,5,0,0,0-2.18.79c-.39.32-.2,1-.66,1.33-.62.51-2.11.36-2.73.83-1.1.84-1.25,2.2-1.69,2.29-1.23.24-9.5-2.8-11.84-1.71s-6.32,3.34-7.92,4.93-9.87.91-11.21.54S118.55,310.35,118.55,310.35Z" fill="#fff" stroke="#4c5054" stroke-miterlimit="10" stroke-width="2.02"/><path d="M194.68,321l49.46-77.44H230.52a1.3,1.3,0,0,0-1.09.59l-43.3,66.23a1.29,1.29,0,0,0,.13,1.6Z" fill="#fff" stroke="#4c5054" stroke-miterlimit="10" stroke-width="2"/><path d="M199.2,321.85l48.1-75.22c.61-.95-2-3.07-3.16-3.07h0L194.68,321h0C195.29,321.92,198.61,322.78,199.2,321.85Z" fill="#fff" stroke="#4c5054" stroke-miterlimit="10" stroke-width="2"/><path d="M111.48,344.94l82.15-18.69A1.3,1.3,0,0,0,194.7,325V321.5l-84.52,19.84a1.31,1.31,0,0,0-.7,2.11l.76,1A1.27,1.27,0,0,0,111.48,344.94Z" fill="#fff" stroke="#4c5054" stroke-miterlimit="10" stroke-width="2"/><line x1="134.28" y1="216.58" x2="104.92" y2="191.84" fill="#4c5054" stroke="#4c5054" stroke-miterlimit="10" stroke-width="2.69"/><g clip-path="url(#a)"><path d="M101.34,271.18c-1.59,0-51-12.49-78.14-35.14" fill="none" stroke="#4c5054" stroke-miterlimit="10" stroke-width="14"/><path d="M101.83,292.79s-45.16,6.35-96-5.67" fill="none" stroke="#4c5054" stroke-miterlimit="10" stroke-width="14"/><path d="M104.33,312.18S55.9,335.49,8.25,329.59" fill="none" stroke="#4c5054" stroke-miterlimit="10" stroke-width="14"/><path d="M115.9,326.25s-63.83,43.17-97.42,44.53" fill="none" stroke="#4c5054" stroke-miterlimit="10" stroke-width="14"/><path d="M121.34,339.86s-43.34,56.5-81,66.49" fill="none" stroke="#4c5054" stroke-miterlimit="10" stroke-width="14"/></g><path d="M50.79,354.84a15.74,15.74,0,0,1-15.73-15l-4.6-81.62c-.4-8.69,7.45-16.06,16.14-16.46s18.47,5.51,18.86,14.2L65.65,319l53.69-12.35c8.42-2.18,16,25,7.6,27.16L54.73,354.34A15.54,15.54,0,0,1,50.79,354.84Z" fill="#fff" stroke="#4c5054" stroke-miterlimit="10" stroke-width="2"/><g clip-path="url(#b)"><path d="M114.76,302c1.36-.37,23.21,18.46,8.85,39.35" fill="#fff" stroke="#4c5054" stroke-miterlimit="10" stroke-width="9"/><path d="M98.51,302.37c-.9.41,14.53,24.44,5.28,47.56" fill="#fff" stroke="#4c5054" stroke-miterlimit="10" stroke-width="9"/><path d="M85.07,306.59c-1.43.42,3.26,30.64-.24,47.08" fill="#fff" stroke="#4c5054" stroke-miterlimit="10" stroke-width="9"/><path d="M72.86,310.79c-1.43.42-8.6,36.72-16.2,48.94" fill="#fff" stroke="#4c5054" stroke-miterlimit="10" stroke-width="9"/><line x1="76.03" y1="307.27" x2="28.49" y2="345.65" fill="#fff" stroke="#4c5054" stroke-miterlimit="10" stroke-width="9"/><line x1="74.97" y1="300.58" x2="23.92" y2="314.66" fill="#fff" stroke="#4c5054" stroke-miterlimit="10" stroke-width="9"/><line x1="25.82" y1="262.34" x2="76.67" y2="259.74" fill="#fff" stroke="#4c5054" stroke-miterlimit="10" stroke-width="9"/></g><path d="M66.09,303.14,56.87,303A47.32,47.32,0,0,0,42,305.13l-9.78,3a1.61,1.61,0,0,1-1.85-1.5l0-13.52a33.88,33.88,0,0,0-.24-4l-1.72-14.66a1.61,1.61,0,0,1,1.52-1.71l16.44.1a13.69,13.69,0,0,0,2-.12l16.57-2a1.62,1.62,0,0,1,1.71,1.57l-.48,12.32a34.73,34.73,0,0,0,.12,4.56l1.15,12.35A1.61,1.61,0,0,1,66.09,303.14Z" fill="#fff" stroke="#4c5054" stroke-miterlimit="10" stroke-width="2.06"/><path d="M53.74,286.54a2.62,2.62,0,0,0-1.82-2.4,9.52,9.52,0,0,0-1.73.33s-.77.2-1.42.42-.74.75-.32,2.16A3.15,3.15,0,0,0,52,289C53.48,288.72,53.69,287.82,53.74,286.54Z" fill="#4c5054"/><path d="M47.84,288.6s-.88.28-.93,1.91,0,2.17.12,2.19.45-.59.67-.91.27-.51.52-.54.89.78,1.07.94.13.18.3.14a6.39,6.39,0,0,0-.56-2.51C48.67,289,48.19,288.56,47.84,288.6Z" fill="#4c5054"/><path d="M62.38,293c-.9-.58-2.91-.17-4.37-.31s-4.53-.86-5-1a1.15,1.15,0,0,1,.28-.39,7.91,7.91,0,0,0,1.57-1.81l1.73-.81a21.08,21.08,0,0,1,4.06-1.5,1.78,1.78,0,0,0,1.47-1.67,1.13,1.13,0,0,0-.67-1s0-.2-.08-.54a1.08,1.08,0,0,0-.57-.81,1.41,1.41,0,0,0-1.71.26,11.68,11.68,0,0,1-1.84,1.81c-.39.29-1.43.9-2,1.23a9.75,9.75,0,0,1,0-2.09,32.33,32.33,0,0,0,.48-4.16c0-1.54-.13-3-2.43-4a12.16,12.16,0,0,0-7.68-.83l-.24.05a9.87,9.87,0,0,0-4.78,1.9c-2,1.81-2.29,3.06-2,4.62s1.16,4.1,1.33,4.9a10.49,10.49,0,0,1,.19,1.26c-.63-.21-1.74-.58-2.17-.78a8.59,8.59,0,0,1-1.76-1.21,1.4,1.4,0,0,0-1.72.09,1.07,1.07,0,0,0-.4.92,5.37,5.37,0,0,0,0,.54,1.13,1.13,0,0,0-.45,1.14,1.78,1.78,0,0,0,1.77,1.34,15.67,15.67,0,0,1,3.88.44l1.92.47a4.6,4.6,0,0,0,1.82,1.39,2.87,2.87,0,0,1,.83.51,41,41,0,0,1-4.65,2.14c-1.4.44-3.17.4-3.94,1.14a1.41,1.41,0,0,0-.35,1.86,1.31,1.31,0,0,0,.81.84L36,299a1.45,1.45,0,0,0,.72,1.39c.83.42,1.52.47,2.38-.82a10.77,10.77,0,0,1,3.72-3.24c1.27-.74,2.17-1.24,2.46-1.4a4.51,4.51,0,0,0,3,.82h0l.29,0h0a4.7,4.7,0,0,0,3.23-1.46c.09-.13.17-.26.24-.38.32.1,1.3.41,2.69.87a10.67,10.67,0,0,1,4.3,2.42c1.11,1.09,2,.95,2.71.37a1.23,1.23,0,0,0,.23-1.51s0,0,.2-.15a1.47,1.47,0,0,0,.88-1A1.6,1.6,0,0,0,62.38,293Zm-7.08-6.11s1.85-1.05,2.29-1.36A7.33,7.33,0,0,0,59.12,284a1.11,1.11,0,0,1,1.47-.34,1.27,1.27,0,0,1,.39.87,2.62,2.62,0,0,1-.33.87,1.5,1.5,0,0,0,.38-.57.72.72,0,0,1,.55.83c-.06.46-.2.78-1.77,1.2A20.62,20.62,0,0,0,56,288.4l-.9.43,0-.21a3,3,0,0,0,.12-.76,2.42,2.42,0,0,0,0-.45C55.31,287,55.3,286.89,55.3,286.89Zm-15.53,3.33a22.57,22.57,0,0,0-4-.63c-1.63-.09-1.55-.32-1.7-.75a.7.7,0,0,1,.39-.91,1.57,1.57,0,0,0,.49.48,2.42,2.42,0,0,1-.5-.78,1.28,1.28,0,0,1,.2-.93.75.75,0,0,1,1.2-.19,6.84,6.84,0,0,0,1.82,1.21c.46.21,2.26.79,2.49.87,0,.06,0,.13,0,.19a2.22,2.22,0,0,0,.07.31v0a7.76,7.76,0,0,0,.47,1.36Zm1.29,6.51a8.1,8.1,0,0,0-2.39,2.39c-.46.6-1.16,1.28-2,.62s-.16-1.8-.18-1.78a2.68,2.68,0,0,0-.43.62,3.56,3.56,0,0,1-.55-.38,1.12,1.12,0,0,1-.12-1.43c.3-.55,1.4-.63,3.47-1.12a25,25,0,0,0,5.19-2.33s.08.11.23.36.56.75.56.75S42.54,295.75,41.06,296.73Zm10.28-4-.05.06c-.08,0-.15,0-.11.15a.94.94,0,0,1-.18,1c-.31.27-.44-.4-.44-.4l-.05,0s.17.68-.12.8-.34-.6-.34-.6H50s.29.79-.16.95-.4-.78-.4-.78H49.2s.35,1-.28,1.06-.52-.91-.52-.91l-.25,0s.35,1-.32,1-.5-1-.5-1l-.25,0s.21.85-.2.9-.39-.94-.39-.94H46.4s0,.23,0,.45-.22.33-.34.19a1.87,1.87,0,0,1-.15-.73h0s0,0,0,.18,0,.38-.3.38-.34-.73-.37-1v-.1s-.51-.69-.8-1.17-.75-.43-1.57-.71-1.88-.62-2.23-3.17v-.08l0-.12h0c0-.26-.06-.53-.07-.82-.05-1,.75-2.27.64-4.22s-.61-2.15-.67-2-.15,2.47-.24,3.44a7.19,7.19,0,0,1-.25,1.49s-1.5-4.24-.76-5.65a7.54,7.54,0,0,1,3.1-3.36,21.33,21.33,0,0,1,3.74-1.25,12,12,0,0,1,3.91.14c2.17.46,4.69,2.31,4.88,3.59a10.08,10.08,0,0,1-.07,3.32c-.17,1.44-.23,1.91-.23,1.91s-1.44-4-1.61-4.49-.54-.53-.58.1a6.49,6.49,0,0,0,.89,3.37c.82,1.47,1.6,2.71,1.35,4.27s-1.42,2.29-2.23,2.94A3.75,3.75,0,0,0,51.34,292.73Zm11,2.44a1.63,1.63,0,0,1-.56.44,2.69,2.69,0,0,0-.54-.53s1,1,.36,1.84-1.51.38-2.09-.11a8.57,8.57,0,0,0-2.9-1.91c-1.61-.64-4.11-1.46-4.24-1.5a8.84,8.84,0,0,0,.47-1.2,32.72,32.72,0,0,0,5.62,1c2.13.05,3.32,0,3.73.48A1.24,1.24,0,0,1,62.3,295.17Z" fill="#4c5054"/><path d="M46.05,285.17c-.68-.08-1.47-.12-1.47-.12a9.44,9.44,0,0,0-1.76,0,2.61,2.61,0,0,0-1.3,2.72c.31,1.24.7,2.08,2.19,2.08a3.15,3.15,0,0,0,3.1-2.65C46.93,285.75,46.73,285.25,46.05,285.17Z" fill="#4c5054"/><line x1="285.94" y1="379.21" x2="272.22" y2="400.44" fill="none" stroke="#4c5054" stroke-miterlimit="10" stroke-width="4.2"/><line x1="291.51" y1="382.95" x2="282.04" y2="406.27" fill="none" stroke="#4c5054" stroke-miterlimit="10" stroke-width="4.2"/><line x1="297.72" y1="386.47" x2="292.19" y2="412.98" fill="none" stroke="#4c5054" stroke-miterlimit="10" stroke-width="4.2"/><path d="M86.36,248l1.23-1.73a1.36,1.36,0,0,0-.29-1.86c-2.55-1.91-8-7.17-12.9-11-3.64-2.88-6.29-7.72-7.6-9.58a1.34,1.34,0,0,0-2.33.26L61.09,232a1.34,1.34,0,0,0,.48,1.65L84,249a1.35,1.35,0,0,0,1.79-.23l.54-.63A.44.44,0,0,0,86.36,248Z" fill="#4c5054"/></svg>